<svg xmlns="http://www.w3.org/2000/svg" xmlns:xlink="http://www.w3.org/1999/xlink" xmlns:lucid="lucid" width="1600" height="992"><g transform="translate(768 0)" lucid:page-tab-id="0_0"><path d="M0 0h448v528H0zM-360 25c0-2.76 2.24-5 5-5h190c2.76 0 5 2.24 5 5v412c0 2.76-2.24 5-5 5h-190c-2.76 0-5-2.24-5-5z" fill="#fff"/><path d="M-360 20h200v40h-200z" fill="#ccc"/><path d="M-360 25c0-2.76 2.24-5 5-5h190c2.76 0 5 2.24 5 5v412c0 2.76-2.24 5-5 5h-190c-2.76 0-5-2.24-5-5zM-360 60h200" stroke="#000" stroke-width="2" fill="none"/><use xlink:href="#a" transform="matrix(1,0,0,1,-349.99999999999994,20) translate(10 20.4)"/><use xlink:href="#b" transform="matrix(1,0,0,1,-354.99999999999994,62.5) translate(10 20.4)"/><use xlink:href="#c" transform="matrix(1,0,0,1,-354.99999999999994,100.5) translate(10 20.4)"/><use xlink:href="#d" transform="matrix(1,0,0,1,-354.99999999999994,138.5) translate(10 20.4)"/><use xlink:href="#e" transform="matrix(1,0,0,1,-354.99999999999994,176.5) translate(10 23.1)"/><use xlink:href="#f" transform="matrix(1,0,0,1,-354.99999999999994,214.5) translate(10 23.1)"/><use xlink:href="#g" transform="matrix(1,0,0,1,-354.99999999999994,252.5) translate(0 17.1)"/><use xlink:href="#h" transform="matrix(1,0,0,1,-354.99999999999994,252.5) translate(10 17.1)"/><use xlink:href="#g" transform="matrix(1,0,0,1,-354.99999999999994,284.5) translate(0 17.1)"/><use xlink:href="#i" transform="matrix(1,0,0,1,-354.99999999999994,284.5) translate(10 17.1)"/><use xlink:href="#g" transform="matrix(1,0,0,1,-354.99999999999994,316.5) translate(0 17.1)"/><use xlink:href="#j" transform="matrix(1,0,0,1,-354.99999999999994,316.5) translate(10 17.1)"/><use xlink:href="#g" transform="matrix(1,0,0,1,-354.99999999999994,348.5) translate(0 17.1)"/><use xlink:href="#k" transform="matrix(1,0,0,1,-354.99999999999994,348.5) translate(10 17.1)"/><use xlink:href="#g" transform="matrix(1,0,0,1,-354.99999999999994,380.5) translate(0 17.1)"/><use xlink:href="#l" transform="matrix(1,0,0,1,-354.99999999999994,380.5) translate(10 17.1)"/><use xlink:href="#g" transform="matrix(1,0,0,1,-354.99999999999994,412.5) translate(0 17.1)"/><use xlink:href="#m" transform="matrix(1,0,0,1,-354.99999999999994,412.5) translate(10 17.1)"/><path d="M140 587c0-2.76 2.24-5 5-5h190c2.76 0 5 2.24 5 5v265c0 2.76-2.24 5-5 5H145c-2.76 0-5-2.24-5-5z" fill="#fff"/><path d="M140 582h200v40H140z" fill="#ccc"/><path d="M140 587c0-2.76 2.24-5 5-5h190c2.76 0 5 2.24 5 5v265c0 2.76-2.24 5-5 5H145c-2.76 0-5-2.24-5-5zM140 622h200" stroke="#3d4752" stroke-width="2" fill="none"/><use xlink:href="#n" transform="matrix(1,0,0,1,150.0000000000001,582) translate(10 19.866666666666667)"/><use xlink:href="#o" transform="matrix(1,0,0,1,150.0000000000001,582) translate(14.814814814814817 19.866666666666667)"/><use xlink:href="#p" transform="matrix(1,0,0,1,145.0000000000001,624.5) translate(10 19.866666666666667)"/><use xlink:href="#q" transform="matrix(1,0,0,1,145.0000000000001,624.5) translate(14.814814814814817 19.866666666666667)"/><use xlink:href="#n" transform="matrix(1,0,0,1,145.0000000000001,661.5) translate(10 19.866666666666667)"/><use xlink:href="#r" transform="matrix(1,0,0,1,145.0000000000001,661.5) translate(14.814814814814817 19.866666666666667)"/><use xlink:href="#n" transform="matrix(1,0,0,1,145.0000000000001,698.5) translate(10 19.866666666666667)"/><use xlink:href="#s" transform="matrix(1,0,0,1,145.0000000000001,698.5) translate(14.814814814814817 19.866666666666667)"/><use xlink:href="#t" transform="matrix(1,0,0,1,145.0000000000001,735.5) translate(0 16.46666666666667)"/><use xlink:href="#u" transform="matrix(1,0,0,1,145.0000000000001,735.5) translate(14.444444444444446 16.46666666666667)"/><use xlink:href="#t" transform="matrix(1,0,0,1,145.0000000000001,766.5) translate(0 16.46666666666667)"/><use xlink:href="#v" transform="matrix(1,0,0,1,145.0000000000001,766.5) translate(14.444444444444446 16.46666666666667)"/><use xlink:href="#t" transform="matrix(1,0,0,1,145.0000000000001,797.5) translate(0 16.46666666666667)"/><use xlink:href="#w" transform="matrix(1,0,0,1,145.0000000000001,797.5) translate(14.444444444444446 16.46666666666667)"/><use xlink:href="#t" transform="matrix(1,0,0,1,145.0000000000001,828.5) translate(0 16.46666666666667)"/><use xlink:href="#x" transform="matrix(1,0,0,1,145.0000000000001,828.5) translate(14.444444444444446 16.46666666666667)"/><path d="M140 179c0-2.76 2.24-5 5-5h190c2.76 0 5 2.24 5 5v104c0 2.76-2.24 5-5 5H145c-2.76 0-5-2.24-5-5z" fill="#fff"/><path d="M140 174h200v40H140z" fill="#ccc"/><path d="M140 179c0-2.76 2.24-5 5-5h190c2.76 0 5 2.24 5 5v104c0 2.76-2.24 5-5 5H145c-2.76 0-5-2.24-5-5zM140 214h200" stroke="#3d4752" stroke-width="2" fill="none"/><use xlink:href="#n" transform="matrix(1,0,0,1,150.0000000000001,174) translate(10 19.866666666666667)"/><use xlink:href="#y" transform="matrix(1,0,0,1,150.0000000000001,174) translate(14.814814814814817 19.866666666666667)"/><use xlink:href="#p" transform="matrix(1,0,0,1,145.0000000000001,216.5) translate(10 19.866666666666667)"/><use xlink:href="#z" transform="matrix(1,0,0,1,145.0000000000001,216.5) translate(14.814814814814817 19.866666666666667)"/><use xlink:href="#n" transform="matrix(1,0,0,1,145.0000000000001,253.5) translate(10 19.866666666666667)"/><use xlink:href="#A" transform="matrix(1,0,0,1,145.0000000000001,253.5) translate(14.814814814814817 19.866666666666667)"/><path d="M-360 747c0-2.76 2.24-5 5-5h190c2.76 0 5 2.24 5 5v240c0 2.76-2.24 5-5 5h-190c-2.76 0-5-2.24-5-5z" fill="#fff"/><path d="M-360 742h200v40h-200z" fill="#ccc"/><path d="M-360 747c0-2.76 2.24-5 5-5h190c2.76 0 5 2.24 5 5v240c0 2.76-2.24 5-5 5h-190c-2.76 0-5-2.24-5-5zM-360 782h200" stroke="#3d4752" stroke-width="2" fill="none"/><use xlink:href="#B" transform="matrix(1,0,0,1,-349.99999999999994,742) translate(10 20.4)"/><use xlink:href="#C" transform="matrix(1,0,0,1,-354.99999999999994,784.5) translate(10 20.4)"/><use xlink:href="#D" transform="matrix(1,0,0,1,-354.99999999999994,822.5) translate(10 20.4)"/><use xlink:href="#E" transform="matrix(1,0,0,1,-354.99999999999994,860.5) translate(10 20.4)"/><use xlink:href="#g" transform="matrix(1,0,0,1,-354.99999999999994,898.5) translate(0 17.1)"/><use xlink:href="#F" transform="matrix(1,0,0,1,-354.99999999999994,898.5) translate(10 17.1)"/><use xlink:href="#g" transform="matrix(1,0,0,1,-354.99999999999994,930.5) translate(0 17.1)"/><use xlink:href="#G" transform="matrix(1,0,0,1,-354.99999999999994,930.5) translate(10 17.1)"/><use xlink:href="#g" transform="matrix(1,0,0,1,-354.99999999999994,962.5) translate(0 17.1)"/><use xlink:href="#H" transform="matrix(1,0,0,1,-354.99999999999994,962.5) translate(10 17.1)"/><path d="M560 327c0-2.76 2.24-5 5-5h190c2.76 0 5 2.24 5 5v210c0 2.76-2.24 5-5 5H565c-2.76 0-5-2.24-5-5z" fill="#fff"/><path d="M560 322h200v40H560z" fill="#ccc"/><path d="M560 327c0-2.76 2.24-5 5-5h190c2.76 0 5 2.24 5 5v210c0 2.76-2.24 5-5 5H565c-2.76 0-5-2.24-5-5zM560 362h200" stroke="#3d4752" stroke-width="2" fill="none"/><use xlink:href="#n" transform="matrix(1,0,0,1,570,322) translate(10 19.866666666666667)"/><use xlink:href="#I" transform="matrix(1,0,0,1,570,322) translate(14.814814814814817 19.866666666666667)"/><use xlink:href="#p" transform="matrix(1,0,0,1,565,364.5) translate(10 19.866666666666667)"/><use xlink:href="#J" transform="matrix(1,0,0,1,565,364.5) translate(14.814814814814817 19.866666666666667)"/><use xlink:href="#p" transform="matrix(1,0,0,1,565,401.5) translate(10 19.866666666666667)"/><use xlink:href="#K" transform="matrix(1,0,0,1,565,401.5) translate(14.814814814814817 19.866666666666667)"/><use xlink:href="#n" transform="matrix(1,0,0,1,565,438.5) translate(10 19.866666666666667)"/><use xlink:href="#L" transform="matrix(1,0,0,1,565,438.5) translate(14.814814814814817 19.866666666666667)"/><use xlink:href="#n" transform="matrix(1,0,0,1,565,475.5) translate(10 19.866666666666667)"/><use xlink:href="#M" transform="matrix(1,0,0,1,565,475.5) translate(14.814814814814817 19.866666666666667)"/><use xlink:href="#g" transform="matrix(1,0,0,1,565,512.5) translate(0 17.1)"/><use xlink:href="#N" transform="matrix(1,0,0,1,565,512.5) translate(10 17.1)"/><path d="M-260 443v279.76" stroke="#999" stroke-width="2" fill="none"/><path d="M-259 443h-2v-1h2zM-260 737.76l-4.64-14.26h9.28z" fill="#999"/><path d="M-260 741l-6-18.5h12zm-3.26-16.5l3.26 10.03 3.26-10.03z" fill="#999"/><path d="M-180 581.5c0 21.82-35.82 39.5-80 39.5s-80-17.68-80-39.5 35.82-39.5 80-39.5 80 17.68 80 39.5z" stroke="#666" stroke-width="2" fill="#fff"/><use xlink:href="#O" transform="matrix(1,0,0,1,-339.99999999999994,542) translate(45.004999999999995 44.025)"/><path d="M-320 447c0-2.76 2.24-5 5-5h50c2.76 0 5 2.24 5 5v50c0 2.76-2.24 5-5 5h-50c-2.76 0-5-2.24-5-5z" stroke="#000" stroke-opacity="0" stroke-width="2" fill="#fff" fill-opacity="0"/><use xlink:href="#P" transform="matrix(1,0,0,1,-315.00000000000006,447) translate(11.024999999999999 28.6)"/><path d="M-320 686.2c0-2.76 2.24-5 5-5h50c2.76 0 5 2.24 5 5v50c0 2.76-2.24 5-5 5h-50c-2.76 0-5-2.24-5-5z" stroke="#000" stroke-opacity="0" stroke-width="2" fill="#fff" fill-opacity="0"/><use xlink:href="#Q" transform="matrix(1,0,0,1,-315.00000000000006,686.2) translate(12.5 28.6)"/><path d="M-260 711.2v11.56" stroke="#999" stroke-width="2" fill="none"/><path d="M-260 711.2h-1v-3h1zM-260 737.76l-4.64-14.26h9.28z" fill="#999"/><path d="M-260 741l-6-18.5h12zm-3.26-16.5l3.26 10.03 3.26-10.03z" fill="#999"/><path d="M-159 231h148.24c.42 0 .76.34.76.76s.34.75.76.75h130" stroke="#999" stroke-width="2" fill="none"/><path d="M-159 232h-1v-2h1zM135.76 232.5l-14.26 4.65v-9.27z" fill="#999"/><path d="M139 232.5l-18.5 6.03V226.5zm-16.5 3.27l10.03-3.26-10.03-3.24z" fill="#999"/><path d="M70 231c0 21.82-35.82 39.5-80 39.5s-80-17.68-80-39.5 35.82-39.5 80-39.5 80 17.68 80 39.5z" stroke="#666" stroke-width="2" fill="#fff"/><use xlink:href="#R" transform="matrix(1,0,0,1,-90,191.5) translate(59.555 44.025)"/><path d="M-160 239c0-2.76 2.24-5 5-5h50c2.76 0 5 2.24 5 5v50c0 2.76-2.24 5-5 5h-50c-2.76 0-5-2.24-5-5z" stroke="#000" stroke-opacity="0" stroke-width="2" fill="#fff" fill-opacity="0"/><use xlink:href="#P" transform="matrix(1,0,0,1,-155,239) translate(11.024999999999999 28.6)"/><path d="M80 239c0-2.76 2.24-5 5-5h50c2.76 0 5 2.24 5 5v50c0 2.76-2.24 5-5 5H85c-2.76 0-5-2.24-5-5z" stroke="#000" stroke-opacity="0" stroke-width="2" fill="#fff" fill-opacity="0"/><use xlink:href="#Q" transform="matrix(1,0,0,1,85.00000000000011,239) translate(12.5 28.6)"/><path d="M-120 62H24.2L40 77.8V141h-160z" stroke="#d9be60" stroke-width="2" fill="#ffdf71"/><path d="M24.2 62L40 77.8H24.2z" fill="#d9be60"/><use xlink:href="#S" transform="matrix(1,0,0,1,-115,67) translate(27.299999999999997 38.1)"/><path d="M-40 142v41c0 2.76-2.24 5-5 5h-80c-2.76 0-5 2.24-5 5v22.76" stroke="#999" stroke-width="2" fill="none"/><path d="M-39 142h-2v-1h2zM-130 230.76l-4.64-14.26h9.28z" fill="#999"/><path d="M-130 234l-6-18.5h12zm-3.26-16.5l3.26 10.03 3.26-10.03z" fill="#999"/><path d="M240 581V307.24" stroke="#999" stroke-width="2" fill="none"/><path d="M241 582h-2v-1h2zM244.64 306.5h-9.28l4.64-14.26z" fill="#999"/><path d="M246 307.5h-12l6-18.5zm-9.26-2h6.52L240 295.47z" fill="#999"/><path d="M70 231c0 21.82-35.82 39.5-80 39.5s-80-17.68-80-39.5 35.82-39.5 80-39.5 80 17.68 80 39.5z" stroke="#666" stroke-width="2" fill="#fff"/><use xlink:href="#R" transform="matrix(1,0,0,1,-90,191.5) translate(59.555 44.025)"/><path d="M320 441.5c0 21.82-35.82 39.5-80 39.5s-80-17.68-80-39.5 35.82-39.5 80-39.5 80 17.68 80 39.5z" stroke="#666" stroke-width="2" fill="#fff"/><use xlink:href="#T" transform="matrix(1,0,0,1,160.0000000000001,402) translate(58.08 44.025)"/><path d="M240 293c0-2.76 2.24-5 5-5h50c2.76 0 5 2.24 5 5v50c0 2.76-2.24 5-5 5h-50c-2.76 0-5-2.24-5-5z" stroke="#000" stroke-opacity="0" stroke-width="2" fill="#fff" fill-opacity="0"/><use xlink:href="#P" transform="matrix(1,0,0,1,245,293) translate(11.024999999999999 28.6)"/><path d="M240 527c0-2.76 2.24-5 5-5h50c2.76 0 5 2.24 5 5v50c0 2.76-2.24 5-5 5h-50c-2.76 0-5-2.24-5-5z" stroke="#000" stroke-opacity="0" stroke-width="2" fill="#fff" fill-opacity="0"/><use xlink:href="#U" transform="matrix(1,0,0,1,245,527) translate(12.5 28.6)"/><path d="M341 232.5h314c2.76 0 5 2.25 5 5v65.26" stroke="#999" stroke-width="2" fill="none"/><path d="M341 233.5h-1v-2h1zM660 317.76l-4.64-14.26h9.28z" fill="#999"/><path d="M660 321l-6-18.5h12zm-3.26-16.5l3.26 10.03 3.26-10.03z" fill="#999"/><path d="M341 269.9h104c2.76 0 5 2.22 5 5v100.08c0 2.77 2.24 5 5 5h85.76" stroke="#999" stroke-width="2" fill="none"/><path d="M341 270.9h-1v-2h1zM555.76 380l-14.26 4.62v-9.27z" fill="#999"/><path d="M559 380l-18.5 6v-12.03zm-16.5 3.24l10.03-3.25-10.03-3.27z" fill="#999"/><path d="M341 600.83h104c2.76 0 5-2.24 5-5V497.1c0-2.77 2.24-5 5-5h85.76" stroke="#999" stroke-width="2" fill="none"/><path d="M341 601.83h-1v-2h1zM555.76 492.1l-14.26 4.63v-9.27z" fill="#999"/><path d="M559 492.1l-18.5 6V486.1zm-16.5 3.25l10.03-3.25-10.03-3.26z" fill="#999"/><path d="M341 639.7h314c2.76 0 5-2.23 5-5v-73.46" stroke="#999" stroke-width="2" fill="none"/><path d="M341 640.7h-1v-2h1zM664.64 560.5h-9.28l4.64-14.26z" fill="#999"/><path d="M666 561.5h-12l6-18.5zm-9.26-2h6.52L660 549.47z" fill="#999"/><path d="M340 267c0-2.76 2.24-5 5-5h50c2.76 0 5 2.24 5 5v50c0 2.76-2.24 5-5 5h-50c-2.76 0-5-2.24-5-5z" stroke="#000" stroke-opacity="0" stroke-width="2" fill="#fff" fill-opacity="0"/><use xlink:href="#Q" transform="matrix(1,0,0,1,345,267) translate(12.5 28.6)"/><path d="M340 187c0-2.76 2.24-5 5-5h50c2.76 0 5 2.24 5 5v50c0 2.76-2.24 5-5 5h-50c-2.76 0-5-2.24-5-5z" stroke="#000" stroke-opacity="0" stroke-width="2" fill="#fff" fill-opacity="0"/><use xlink:href="#Q" transform="matrix(1,0,0,1,345,187) translate(12.5 28.6)"/><path d="M340 557c0-2.76 2.24-5 5-5h50c2.76 0 5 2.24 5 5v50c0 2.76-2.24 5-5 5h-50c-2.76 0-5-2.24-5-5z" stroke="#000" stroke-opacity="0" stroke-width="2" fill="#fff" fill-opacity="0"/><use xlink:href="#Q" transform="matrix(1,0,0,1,345,557) translate(12.5 28.6)"/><path d="M340 647c0-2.76 2.24-5 5-5h50c2.76 0 5 2.24 5 5v48.4c0 2.76-2.24 5-5 5h-50c-2.76 0-5-2.24-5-5z" stroke="#000" stroke-opacity="0" stroke-width="2" fill="#fff" fill-opacity="0"/><use xlink:href="#Q" transform="matrix(1,0,0,1,345,647) translate(12.5 28.1)"/><path d="M500 327c0-2.76 2.24-5 5-5h50c2.76 0 5 2.24 5 5v50c0 2.76-2.24 5-5 5h-50c-2.76 0-5-2.24-5-5z" stroke="#000" stroke-opacity="0" stroke-width="2" fill="#fff" fill-opacity="0"/><use xlink:href="#P" transform="matrix(1,0,0,1,505,327) translate(11.024999999999999 28.6)"/><path d="M650 267c0-2.76 2.24-5 5-5h50c2.76 0 5 2.24 5 5v50c0 2.76-2.24 5-5 5h-50c-2.76 0-5-2.24-5-5z" stroke="#000" stroke-opacity="0" stroke-width="2" fill="#fff" fill-opacity="0"/><use xlink:href="#P" transform="matrix(1,0,0,1,655,267) translate(11.024999999999999 28.6)"/><path d="M650 547c0-2.76 2.24-5 5-5h50c2.76 0 5 2.24 5 5v50c0 2.76-2.24 5-5 5h-50c-2.76 0-5-2.24-5-5z" stroke="#000" stroke-opacity="0" stroke-width="2" fill="#fff" fill-opacity="0"/><use xlink:href="#P" transform="matrix(1,0,0,1,655,547) translate(11.024999999999999 28.6)"/><path d="M320 441.5c0 21.82-35.82 39.5-80 39.5s-80-17.68-80-39.5 35.82-39.5 80-39.5 80 17.68 80 39.5z" stroke="#666" stroke-width="2" fill="#fff"/><use xlink:href="#T" transform="matrix(1,0,0,1,160.0000000000001,402) translate(58.08 44.025)"/><path d="M530 327.5c0 21.82-35.82 39.5-80 39.5s-80-17.68-80-39.5 35.82-39.5 80-39.5 80 17.68 80 39.5z" stroke="#666" stroke-width="2" fill="#fff"/><use xlink:href="#V" transform="matrix(1,0,0,1,370,288) translate(57.580000000000005 44.025)"/><path d="M500 447c0-2.76 2.24-5 5-5h50c2.76 0 5 2.24 5 5v50c0 2.76-2.24 5-5 5h-50c-2.76 0-5-2.24-5-5z" stroke="#000" stroke-opacity="0" stroke-width="2" fill="#fff" fill-opacity="0"/><use xlink:href="#P" transform="matrix(1,0,0,1,505,447) translate(11.024999999999999 28.6)"/><path d="M530 542.5c0 21.82-35.82 39.5-80 39.5s-80-17.68-80-39.5 35.82-39.5 80-39.5 80 17.68 80 39.5z" stroke="#666" stroke-width="2" fill="#fff"/><use xlink:href="#W" transform="matrix(1,0,0,1,370,503) translate(54.529999999999994 44.025)"/><path d="M620 641.5c0 21.82-35.82 39.5-80 39.5s-80-17.68-80-39.5 35.82-39.5 80-39.5 80 17.68 80 39.5z" stroke="#666" stroke-width="2" fill="#fff"/><use xlink:href="#V" transform="matrix(1,0,0,1,460,602) translate(57.580000000000005 44.025)"/><path d="M620 231c0 22.1-35.82 40-80 40s-80-17.9-80-40 35.82-40 80-40 80 17.9 80 40z" stroke="#666" stroke-width="2" fill="#fff"/><use xlink:href="#W" transform="matrix(1,0,0,1,460,191) translate(54.529999999999994 44.4)"/><path d="M139 810.5H-5.5c-2.5 0-4.5-2-4.5-4.5s-2-4.5-4.5-4.5h-126.26" stroke="#999" stroke-width="2" fill="none"/><path d="M140 811.5h-1v-2h1zM-141.5 806.14l-14.26-4.64 14.26-4.64z" fill="#999"/><path d="M-140.5 807.5l-18.5-6 18.5-6zm-12.03-6l10.03 3.26v-6.52z" fill="#999"/><path d="M70 801.5c0 21.82-35.82 39.5-80 39.5s-80-17.68-80-39.5S-54.18 762-10 762s80 17.68 80 39.5z" stroke="#666" stroke-width="2" fill="#fff"/><use xlink:href="#X" transform="matrix(1,0,0,1,-90,762) translate(61.005 44.025)"/><path d="M-60 913h224.2l15.8 15.8V992H-60z" stroke="#d9be60" stroke-width="2" fill="#ffdf71"/><path d="M164.2 913l15.8 15.8h-15.8z" fill="#d9be60"/><use xlink:href="#Y" transform="matrix(1,0,0,1,-55,918) translate(7.849999999999994 38.1)"/><use xlink:href="#Z" transform="matrix(1,0,0,1,-55,918) translate(132.7 38.1)"/><use xlink:href="#H" transform="matrix(1,0,0,1,-55,918) translate(148.20000000000002 38.1)"/><path d="M60 912v-50c0-2.76 2.24-5 5-5h40c2.76 0 5-2.24 5-5v-31.76" stroke="#999" stroke-width="2" fill="none"/><path d="M61 913h-2v-1h2zM114.64 819.5h-9.28l4.64-14.26z" fill="#999"/><path d="M116 820.5h-12l6-18.5zm-9.26-2h6.52L110 808.47z" fill="#999"/><path d="M-160 747c0-2.76 2.24-5 5-5h50c2.76 0 5 2.24 5 5v50c0 2.76-2.24 5-5 5h-50c-2.76 0-5-2.24-5-5z" stroke="#000" stroke-opacity="0" stroke-width="2" fill="#fff" fill-opacity="0"/><use xlink:href="#P" transform="matrix(1,0,0,1,-155,747) translate(11.024999999999999 28.6)"/><path d="M80 747c0-2.76 2.24-5 5-5h50c2.76 0 5 2.24 5 5v50c0 2.76-2.24 5-5 5H85c-2.76 0-5-2.24-5-5z" stroke="#000" stroke-opacity="0" stroke-width="2" fill="#fff" fill-opacity="0"/><use xlink:href="#Q" transform="matrix(1,0,0,1,85.00000000000011,747) translate(12.5 28.6)"/><path d="M-159 363.3H15c2.76 0 5 2.25 5 5v227.52c0 2.77 2.24 5 5 5h95.76" stroke="#999" stroke-width="2" fill="none"/><path d="M-159 364.3h-1v-2h1zM135.76 600.83l-14.26 4.63v-9.27z" fill="#999"/><path d="M139 600.83l-18.5 6v-12.02zm-16.5 3.25l10.03-3.25-10.03-3.26z" fill="#999"/><path d="M-160 426h75c2.76 0 5 2.24 5 5v241.08c0 2.76 2.24 5 5 5h195.76" stroke="#999" stroke-width="2" fill="none"/><path fill="#999"/><path d="M135.76 677.08l-14.26 4.64v-9.28z" fill="#999"/><path d="M139 677.08l-18.5 6v-12zm-16.5 3.26l10.03-3.26-10.03-3.26z" fill="#999"/><path d="M100 362.5c0 21.82-35.82 39.5-80 39.5s-80-17.68-80-39.5S-24.18 323 20 323s80 17.68 80 39.5z" stroke="#666" stroke-width="2" fill="#fff"/><use xlink:href="#aa" transform="matrix(1,0,0,1,-60,323) translate(46.529999999999994 44.025)"/><path d="M-160 427c0-2.76 2.24-5 5-5h50c2.76 0 5 2.24 5 5v50c0 2.76-2.24 5-5 5h-50c-2.76 0-5-2.24-5-5z" stroke="#000" stroke-opacity="0" stroke-width="2" fill="#fff" fill-opacity="0"/><use xlink:href="#P" transform="matrix(1,0,0,1,-155,427) translate(11.024999999999999 28.6)"/><path d="M80 636c0-2.76 2.24-5 5-5h50c2.76 0 5 2.24 5 5v50c0 2.76-2.24 5-5 5H85c-2.76 0-5-2.24-5-5z" stroke="#000" stroke-opacity="0" stroke-width="2" fill="#fff" fill-opacity="0"/><use xlink:href="#P" transform="matrix(1,0,0,1,85.00000000000011,636) translate(11.024999999999999 28.6)"/><path d="M341 780.1h334c2.76 0 5-2.24 5-5v-97.55c0-2.76 2.24-5 5-5h49c2.76 0 5-2.24 5-5v-106.3" stroke="#999" stroke-width="2" fill="none"/><path d="M341 781.1h-1v-2h1zM743.64 560.5h-9.28l4.64-14.26z" fill="#999"/><path d="M745 561.5h-12l6-18.5zm-9.26-2h6.52L739 549.47z" fill="#999"/><path d="M350 735.4c0-2.76 2.24-5 5-5h50c2.76 0 5 2.24 5 5v48.4c0 2.76-2.24 5-5 5h-50c-2.76 0-5-2.24-5-5z" stroke="#000" stroke-opacity="0" stroke-width="2" fill="#fff" fill-opacity="0"/><use xlink:href="#P" transform="matrix(1,0,0,1,355,735.4000000000001) translate(11.024999999999999 28.1)"/><path d="M735 547c0-2.76 2.24-5 5-5h50c2.76 0 5 2.24 5 5v48.4c0 2.76-2.24 5-5 5h-50c-2.76 0-5-2.24-5-5z" stroke="#000" stroke-opacity="0" stroke-width="2" fill="#fff" fill-opacity="0"/><g><use xlink:href="#P" transform="matrix(1,0,0,1,740,547) translate(11.024999999999999 28.1)"/></g><path d="M157.67 581v-75c0-2.76-2.24-5-5-5h-794.43" stroke="#999" stroke-width="2" fill="none"/><path d="M158.67 582h-2v-1h2z" fill="#999"/><path d="M-656.76 501l14.26-4.64v9.28z" stroke="#999" stroke-width="2" fill="#999"/><path d="M-361 231h-314c-2.76 0-5 2.24-5 5v65c0 2.76 2.24 5 5 5h10c2.76 0 5 2.24 5 5v51.76" stroke="#999" stroke-width="2" fill="none"/><path d="M-360 232h-1v-2h1zM-660 377.76l-4.64-14.26h9.28z" fill="#999"/><path d="M-660 381l-6-18.5h12zm-3.26-16.5l3.26 10.03 3.26-10.03z" fill="#999"/><path d="M-361 331h-144.5c-2.76 0-5 2.23-5 5v81c0 2.76-2.24 5-5 5h-126.26" stroke="#999" stroke-width="2" fill="none"/><path d="M-360 332h-1v-2h1z" fill="#999"/><path d="M-656.76 422l14.26-4.64v9.28z" stroke="#999" stroke-width="2" fill="#999"/><path d="M-560 462c0 44.18-44.77 80-100 80s-100-35.82-100-80 44.77-80 100-80 100 35.82 100 80zm-200 0h200" stroke="#666" stroke-width="2" fill="#fff"/><g><use xlink:href="#ab" transform="matrix(1,0,0,1,-730,398) translate(50.175 35.6)"/></g><g><use xlink:href="#ac" transform="matrix(1,0,0,1,-730,486) translate(33.05 14.4)"/><use xlink:href="#ad" transform="matrix(1,0,0,1,-730,486) translate(18.099999999999994 36)"/></g><g><use xlink:href="#ae" transform="matrix(1,0,0,1,-760,462) translate(27.174999999999983 15.6)"/><use xlink:href="#af" transform="matrix(1,0,0,1,-760,462) translate(117.975 15.6)"/></g><path d="M780 783c0 45.84-44.77 83-100 83s-100-37.16-100-83 44.77-83 100-83 100 37.16 100 83zm-200 0h200" stroke="#666" stroke-width="2" fill="#fff"/><g><use xlink:href="#ag" transform="matrix(1,0,0,1,610,716.6) translate(41.2 37.1)"/></g><g><use xlink:href="#ah" transform="matrix(1,0,0,1,610,807) translate(70 14.4)"/><use xlink:href="#ai" transform="matrix(1,0,0,1,610,807) translate(49.05 36)"/></g><g><use xlink:href="#ae" transform="matrix(1,0,0,1,580,783) translate(27.174999999999983 15.6)"/><use xlink:href="#af" transform="matrix(1,0,0,1,580,783) translate(117.975 15.6)"/></g><path d="M-160 312c0-2.76 2.24-5 5-5h50c2.76 0 5 2.24 5 5v50c0 2.76-2.24 5-5 5h-50c-2.76 0-5-2.24-5-5z" stroke="#000" stroke-opacity="0" stroke-width="2" fill="#fff" fill-opacity="0"/><g><use xlink:href="#P" transform="matrix(1,0,0,1,-155,312) translate(11.024999999999999 28.6)"/></g><path d="M80 557c0-2.76 2.24-5 5-5h50c2.76 0 5 2.24 5 5v50c0 2.76-2.24 5-5 5H85c-2.76 0-5-2.24-5-5z" stroke="#000" stroke-opacity="0" stroke-width="2" fill="#fff" fill-opacity="0"/><g><use xlink:href="#Q" transform="matrix(1,0,0,1,85,557) translate(12.5 28.6)"/></g><path d="M20 671c0 44.18-44.77 80-100 80s-100-35.82-100-80 44.77-80 100-80 100 35.82 100 80zm-200 0H20" stroke="#666" stroke-width="2" fill="#fff"/><g><use xlink:href="#aj" transform="matrix(1,0,0,1,-150,607) translate(36.075 35.6)"/></g><g><use xlink:href="#ak" transform="matrix(1,0,0,1,-150,695) translate(-8.175000000000011 14.4)"/><use xlink:href="#al" transform="matrix(1,0,0,1,-150,695) translate(4.824999999999989 36)"/></g><g><use xlink:href="#ae" transform="matrix(1,0,0,1,-180,671) translate(27.174999999999983 15.6)"/><use xlink:href="#af" transform="matrix(1,0,0,1,-180,671) translate(117.975 15.6)"/></g><defs><path d="M33 0v-248h34V0H33" id="am"/><path d="M190 0L58-211 59 0H30v-248h39L202-35l-2-213h31V0h-41" id="an"/><path d="M185-189c-5-48-123-54-124 2 14 75 158 14 163 119 3 78-121 87-175 55-17-10-28-26-33-46l33-7c5 56 141 63 141-1 0-78-155-14-162-118-5-82 145-84 179-34 5 7 8 16 11 25" id="ao"/><path d="M212-179c-10-28-35-45-73-45-59 0-87 40-87 99 0 60 29 101 89 101 43 0 62-24 78-52l27 14C228-24 195 4 139 4 59 4 22-46 18-125c-6-104 99-153 187-111 19 9 31 26 39 46" id="ap"/><path d="M233-177c-1 41-23 64-60 70L243 0h-38l-65-103H63V0H30v-248c88 3 205-21 203 71zM63-129c60-2 137 13 137-47 0-61-80-42-137-45v92" id="aq"/><path d="M127-220V0H93v-220H8v-28h204v28h-85" id="ar"/><g id="a"><use transform="matrix(0.05,0,0,0.05,0,0)" xlink:href="#am"/><use transform="matrix(0.05,0,0,0.05,5,0)" xlink:href="#an"/><use transform="matrix(0.05,0,0,0.05,17.950000000000003,0)" xlink:href="#ao"/><use transform="matrix(0.05,0,0,0.05,29.950000000000003,0)" xlink:href="#ap"/><use transform="matrix(0.05,0,0,0.05,42.900000000000006,0)" xlink:href="#aq"/><use transform="matrix(0.05,0,0,0.05,55.85,0)" xlink:href="#am"/><use transform="matrix(0.05,0,0,0.05,60.85,0)" xlink:href="#ar"/></g><path d="M100-194c63 0 86 42 84 106H49c0 40 14 67 53 68 26 1 43-12 49-29l28 8c-11 28-37 45-77 45C44 4 14-33 15-96c1-61 26-98 85-98zm52 81c6-60-76-77-97-28-3 7-6 17-6 28h103" id="as"/><path d="M210-169c-67 3-38 105-44 169h-31v-121c0-29-5-50-35-48C34-165 62-65 56 0H25l-1-190h30c1 10-1 24 2 32 10-44 99-50 107 0 11-21 27-35 58-36 85-2 47 119 55 194h-31v-121c0-29-5-49-35-48" id="at"/><path d="M141-36C126-15 110 5 73 4 37 3 15-17 15-53c-1-64 63-63 125-63 3-35-9-54-41-54-24 1-41 7-42 31l-33-3c5-37 33-52 76-52 45 0 72 20 72 64v82c-1 20 7 32 28 27v20c-31 9-61-2-59-35zM48-53c0 20 12 33 32 33 41-3 63-29 60-74-43 2-92-5-92 41" id="au"/><path d="M24-231v-30h32v30H24zM24 0v-190h32V0H24" id="av"/><path d="M24 0v-261h32V0H24" id="aw"/><g id="b"><use transform="matrix(0.05,0,0,0.05,0,0)" xlink:href="#as"/><use transform="matrix(0.05,0,0,0.05,10,0)" xlink:href="#at"/><use transform="matrix(0.05,0,0,0.05,24.950000000000003,0)" xlink:href="#au"/><use transform="matrix(0.05,0,0,0.05,34.95,0)" xlink:href="#av"/><use transform="matrix(0.05,0,0,0.05,38.900000000000006,0)" xlink:href="#aw"/><path d="M-.9 1.25h44.65v1.32H-.9z"/></g><path d="M117-194c89-4 53 116 60 194h-32v-121c0-31-8-49-39-48C34-167 62-67 57 0H25l-1-190h30c1 10-1 24 2 32 11-22 29-35 61-36" id="ax"/><path d="M100-194c62-1 85 37 85 99 1 63-27 99-86 99S16-35 15-95c0-66 28-99 85-99zM99-20c44 1 53-31 53-75 0-43-8-75-51-75s-53 32-53 75 10 74 51 75" id="ay"/><g id="c"><use transform="matrix(0.05,0,0,0.05,0,0)" xlink:href="#ax"/><use transform="matrix(0.05,0,0,0.05,10,0)" xlink:href="#ay"/><use transform="matrix(0.05,0,0,0.05,20,0)" xlink:href="#at"/></g><path d="M115-194c55 1 70 41 70 98S169 2 115 4C84 4 66-9 55-30l1 105H24l-1-265h31l2 30c10-21 28-34 59-34zm-8 174c40 0 45-34 45-75s-6-73-45-74c-42 0-51 32-51 76 0 43 10 73 51 73" id="az"/><path d="M114-163C36-179 61-72 57 0H25l-1-190h30c1 12-1 29 2 39 6-27 23-49 58-41v29" id="aA"/><g id="d"><use transform="matrix(0.05,0,0,0.05,0,0)" xlink:href="#az"/><use transform="matrix(0.05,0,0,0.05,10,0)" xlink:href="#aA"/><use transform="matrix(0.05,0,0,0.05,15.949999999999998,0)" xlink:href="#as"/><use transform="matrix(0.05,0,0,0.05,25.950000000000003,0)" xlink:href="#ax"/><use transform="matrix(0.05,0,0,0.05,35.95,0)" xlink:href="#ay"/><use transform="matrix(0.05,0,0,0.05,45.95,0)" xlink:href="#at"/></g><path d="M85-194c31 0 48 13 60 33l-1-100h32l1 261h-30c-2-10 0-23-3-31C134-8 116 4 85 4 32 4 16-35 15-94c0-66 23-100 70-100zm9 24c-40 0-46 34-46 75 0 40 6 74 45 74 42 0 51-32 51-76 0-42-9-74-50-73" id="aB"/><path d="M59-47c-2 24 18 29 38 22v24C64 9 27 4 27-40v-127H5v-23h24l9-43h21v43h35v23H59v120" id="aC"/><path d="M135-143c-3-34-86-38-87 0 15 53 115 12 119 90S17 21 10-45l28-5c4 36 97 45 98 0-10-56-113-15-118-90-4-57 82-63 122-42 12 7 21 19 24 35" id="aD"/><g id="e"><use transform="matrix(0.05,0,0,0.05,0,0)" xlink:href="#aB"/><use transform="matrix(0.05,0,0,0.05,10,0)" xlink:href="#au"/><use transform="matrix(0.05,0,0,0.05,20,0)" xlink:href="#aC"/><use transform="matrix(0.05,0,0,0.05,25,0)" xlink:href="#as"/><use transform="matrix(0.05,0,0,0.05,35,0)" xlink:href="#an"/><use transform="matrix(0.05,0,0,0.05,47.95,0)" xlink:href="#au"/><use transform="matrix(0.05,0,0,0.05,57.95,0)" xlink:href="#av"/><use transform="matrix(0.05,0,0,0.05,61.900000000000006,0)" xlink:href="#aD"/><use transform="matrix(0.05,0,0,0.05,70.9,0)" xlink:href="#aD"/></g><g id="f"><use transform="matrix(0.05,0,0,0.05,0,0)" xlink:href="#au"/><use transform="matrix(0.05,0,0,0.05,10,0)" xlink:href="#aB"/><use transform="matrix(0.05,0,0,0.05,20,0)" xlink:href="#aA"/><use transform="matrix(0.05,0,0,0.05,25.950000000000003,0)" xlink:href="#as"/><use transform="matrix(0.05,0,0,0.05,35.95,0)" xlink:href="#aD"/><use transform="matrix(0.05,0,0,0.05,44.95,0)" xlink:href="#aD"/><use transform="matrix(0.05,0,0,0.05,53.95,0)" xlink:href="#as"/></g><path d="M96-169c-40 0-48 33-48 73s9 75 48 75c24 0 41-14 43-38l32 2c-6 37-31 61-74 61-59 0-76-41-82-99-10-93 101-131 147-64 4 7 5 14 7 22l-32 3c-4-21-16-35-41-35" id="aE"/><path d="M30-248c87 1 191-15 191 75 0 78-77 80-158 76V0H30v-248zm33 125c57 0 124 11 124-50 0-59-68-47-124-48v98" id="aF"/><g id="h"><use transform="matrix(0.05,0,0,0.05,0,0)" xlink:href="#aE"/><use transform="matrix(0.05,0,0,0.05,9,0)" xlink:href="#ay"/><use transform="matrix(0.05,0,0,0.05,19,0)" xlink:href="#aB"/><use transform="matrix(0.05,0,0,0.05,29,0)" xlink:href="#as"/><use transform="matrix(0.05,0,0,0.05,39,0)" xlink:href="#aF"/><use transform="matrix(0.05,0,0,0.05,51,0)" xlink:href="#ay"/><use transform="matrix(0.05,0,0,0.05,61,0)" xlink:href="#aD"/><use transform="matrix(0.05,0,0,0.05,70,0)" xlink:href="#aC"/><use transform="matrix(0.05,0,0,0.05,75,0)" xlink:href="#au"/><use transform="matrix(0.05,0,0,0.05,85,0)" xlink:href="#aw"/><use transform="matrix(0.05,0,0,0.05,88.95,0)" xlink:href="#as"/></g><path d="M179-190L93 31C79 59 56 82 12 73V49c39 6 53-20 64-50L1-190h34L92-34l54-156h33" id="aG"/><g id="i"><use transform="matrix(0.05,0,0,0.05,0,0)" xlink:href="#az"/><use transform="matrix(0.05,0,0,0.05,10,0)" xlink:href="#au"/><use transform="matrix(0.05,0,0,0.05,20,0)" xlink:href="#aG"/><use transform="matrix(0.05,0,0,0.05,29,0)" xlink:href="#aD"/></g><path d="M84 4C-5 8 30-112 23-190h32v120c0 31 7 50 39 49 72-2 45-101 50-169h31l1 190h-30c-1-10 1-25-2-33-11 22-28 36-60 37" id="aH"/><g id="j"><use transform="matrix(0.05,0,0,0.05,0,0)" xlink:href="#ax"/><use transform="matrix(0.05,0,0,0.05,10,0)" xlink:href="#aH"/><use transform="matrix(0.05,0,0,0.05,20,0)" xlink:href="#at"/><use transform="matrix(0.05,0,0,0.05,34.95,0)" xlink:href="#ar"/><use transform="matrix(0.05,0,0,0.05,43.900000000000006,0)" xlink:href="#as"/><use transform="matrix(0.05,0,0,0.05,53.900000000000006,0)" xlink:href="#aw"/></g><g id="k"><use transform="matrix(0.05,0,0,0.05,0,0)" xlink:href="#at"/><use transform="matrix(0.05,0,0,0.05,14.950000000000001,0)" xlink:href="#aB"/><use transform="matrix(0.05,0,0,0.05,24.950000000000003,0)" xlink:href="#az"/></g><path d="M205 0l-28-72H64L36 0H1l101-248h38L239 0h-34zm-38-99l-47-123c-12 45-31 82-46 123h93" id="aI"/><g id="l"><use transform="matrix(0.05,0,0,0.05,0,0)" xlink:href="#as"/><use transform="matrix(0.05,0,0,0.05,10,0)" xlink:href="#aD"/><use transform="matrix(0.05,0,0,0.05,19,0)" xlink:href="#aC"/><use transform="matrix(0.05,0,0,0.05,24,0)" xlink:href="#aI"/><use transform="matrix(0.05,0,0,0.05,36,0)" xlink:href="#aB"/><use transform="matrix(0.05,0,0,0.05,46,0)" xlink:href="#at"/><use transform="matrix(0.05,0,0,0.05,60.95,0)" xlink:href="#av"/><use transform="matrix(0.05,0,0,0.05,64.9,0)" xlink:href="#ax"/></g><path d="M63-220v92h138v28H63V0H30v-248h175v28H63" id="aJ"/><path d="M160-131c35 5 61 23 61 61C221 17 115-2 30 0v-248c76 3 177-17 177 60 0 33-19 50-47 57zm-97-11c50-1 110 9 110-42 0-47-63-36-110-37v79zm0 115c55-2 124 14 124-45 0-56-70-42-124-44v89" id="aK"/><path d="M143 0L79-87 56-68V0H24v-261h32v163l83-92h37l-77 82L181 0h-38" id="aL"/><path d="M177-190C167-65 218 103 67 71c-23-6-38-20-44-43l32-5c15 47 100 32 89-28v-30C133-14 115 1 83 1 29 1 15-40 15-95c0-56 16-97 71-98 29-1 48 16 59 35 1-10 0-23 2-32h30zM94-22c36 0 50-32 50-73 0-42-14-75-50-75-39 0-46 34-46 75s6 73 46 73" id="aM"/><g id="m"><use transform="matrix(0.05,0,0,0.05,0,0)" xlink:href="#aB"/><use transform="matrix(0.05,0,0,0.05,10,0)" xlink:href="#au"/><use transform="matrix(0.05,0,0,0.05,20,0)" xlink:href="#aC"/><use transform="matrix(0.05,0,0,0.05,25,0)" xlink:href="#as"/><use transform="matrix(0.05,0,0,0.05,35,0)" xlink:href="#aJ"/><use transform="matrix(0.05,0,0,0.05,45.95,0)" xlink:href="#av"/><use transform="matrix(0.05,0,0,0.05,49.900000000000006,0)" xlink:href="#ax"/><use transform="matrix(0.05,0,0,0.05,59.900000000000006,0)" xlink:href="#aK"/><use transform="matrix(0.05,0,0,0.05,71.9,0)" xlink:href="#aw"/><use transform="matrix(0.05,0,0,0.05,75.85000000000001,0)" xlink:href="#ay"/><use transform="matrix(0.05,0,0,0.05,85.85000000000001,0)" xlink:href="#aE"/><use transform="matrix(0.05,0,0,0.05,94.85000000000001,0)" xlink:href="#aL"/><use transform="matrix(0.05,0,0,0.05,103.85000000000001,0)" xlink:href="#au"/><use transform="matrix(0.05,0,0,0.05,113.85000000000001,0)" xlink:href="#aM"/><use transform="matrix(0.05,0,0,0.05,123.85000000000001,0)" xlink:href="#as"/></g><path d="M153-248C145-148 188 4 80 4 36 3 13-21 6-62l32-5c4 25 16 42 43 43 27 0 39-20 39-49v-147H72v-28h81" id="aN"/><path d="M30 0v-248h187v28H63v79h144v27H63v87h162V0H30" id="aO"/><g id="o"><use transform="matrix(0.048148148148148155,0,0,0.048148148148148155,0,0)" xlink:href="#ar"/><use transform="matrix(0.048148148148148155,0,0,0.048148148148148155,10.544444444444446,0)" xlink:href="#aq"/><use transform="matrix(0.048148148148148155,0,0,0.048148148148148155,23.01481481481482,0)" xlink:href="#aI"/><use transform="matrix(0.048148148148148155,0,0,0.048148148148148155,34.57037037037038,0)" xlink:href="#aN"/><use transform="matrix(0.048148148148148155,0,0,0.048148148148148155,43.23703703703704,0)" xlink:href="#aO"/><use transform="matrix(0.048148148148148155,0,0,0.048148148148148155,54.7925925925926,0)" xlink:href="#ar"/></g><g id="q"><use transform="matrix(0.048148148148148155,0,0,0.048148148148148155,0,0)" xlink:href="#ax"/><use transform="matrix(0.048148148148148155,0,0,0.048148148148148155,9.629629629629632,0)" xlink:href="#aH"/><use transform="matrix(0.048148148148148155,0,0,0.048148148148148155,19.259259259259263,0)" xlink:href="#at"/><use transform="matrix(0.048148148148148155,0,0,0.048148148148148155,33.655555555555566,0)" xlink:href="#ar"/><path d="M-.87 1.2h45.93v1.27H-.87z"/></g><path d="M141 0L90-78 38 0H4l68-98-65-92h35l48 74 47-74h35l-64 92 68 98h-35" id="aP"/><g id="r"><use transform="matrix(0.048148148148148155,0,0,0.048148148148148155,0,0)" xlink:href="#az"/><use transform="matrix(0.048148148148148155,0,0,0.048148148148148155,9.629629629629632,0)" xlink:href="#aA"/><use transform="matrix(0.048148148148148155,0,0,0.048148148148148155,15.359259259259261,0)" xlink:href="#av"/><use transform="matrix(0.048148148148148155,0,0,0.048148148148148155,19.162962962962965,0)" xlink:href="#aP"/></g><path d="M-5 72V49h209v23H-5" id="aQ"/><g id="s"><use transform="matrix(0.048148148148148155,0,0,0.048148148148148155,0,0)" xlink:href="#aB"/><use transform="matrix(0.048148148148148155,0,0,0.048148148148148155,9.629629629629632,0)" xlink:href="#au"/><use transform="matrix(0.048148148148148155,0,0,0.048148148148148155,19.259259259259263,0)" xlink:href="#aC"/><use transform="matrix(0.048148148148148155,0,0,0.048148148148148155,24.07407407407408,0)" xlink:href="#as"/><use transform="matrix(0.048148148148148155,0,0,0.048148148148148155,33.70370370370371,0)" xlink:href="#aQ"/><use transform="matrix(0.048148148148148155,0,0,0.048148148148148155,43.33333333333334,0)" xlink:href="#aB"/><use transform="matrix(0.048148148148148155,0,0,0.048148148148148155,52.96296296296297,0)" xlink:href="#as"/><use transform="matrix(0.048148148148148155,0,0,0.048148148148148155,62.59259259259261,0)" xlink:href="#az"/></g><g id="u"><use transform="matrix(0.048148148148148155,0,0,0.048148148148148155,0,0)" xlink:href="#aB"/><use transform="matrix(0.048148148148148155,0,0,0.048148148148148155,9.629629629629632,0)" xlink:href="#au"/><use transform="matrix(0.048148148148148155,0,0,0.048148148148148155,19.259259259259263,0)" xlink:href="#aC"/><use transform="matrix(0.048148148148148155,0,0,0.048148148148148155,24.07407407407408,0)" xlink:href="#as"/><use transform="matrix(0.048148148148148155,0,0,0.048148148148148155,33.70370370370371,0)" xlink:href="#aQ"/><use transform="matrix(0.048148148148148155,0,0,0.048148148148148155,43.33333333333334,0)" xlink:href="#au"/><use transform="matrix(0.048148148148148155,0,0,0.048148148148148155,52.96296296296297,0)" xlink:href="#aA"/></g><path d="M108 0H70L1-190h34L89-25l56-165h34" id="aR"/><g id="v"><use transform="matrix(0.048148148148148155,0,0,0.048148148148148155,0,0)" xlink:href="#au"/><use transform="matrix(0.048148148148148155,0,0,0.048148148148148155,9.629629629629632,0)" xlink:href="#aB"/><use transform="matrix(0.048148148148148155,0,0,0.048148148148148155,19.259259259259263,0)" xlink:href="#aA"/><use transform="matrix(0.048148148148148155,0,0,0.048148148148148155,24.988888888888894,0)" xlink:href="#aQ"/><use transform="matrix(0.048148148148148155,0,0,0.048148148148148155,34.61851851851853,0)" xlink:href="#aA"/><use transform="matrix(0.048148148148148155,0,0,0.048148148148148155,40.348148148148155,0)" xlink:href="#aB"/><use transform="matrix(0.048148148148148155,0,0,0.048148148148148155,49.97777777777779,0)" xlink:href="#aR"/></g><g id="w"><use transform="matrix(0.048148148148148155,0,0,0.048148148148148155,0,0)" xlink:href="#au"/><use transform="matrix(0.048148148148148155,0,0,0.048148148148148155,9.629629629629632,0)" xlink:href="#aB"/><use transform="matrix(0.048148148148148155,0,0,0.048148148148148155,19.259259259259263,0)" xlink:href="#aA"/><use transform="matrix(0.048148148148148155,0,0,0.048148148148148155,24.988888888888894,0)" xlink:href="#aQ"/><use transform="matrix(0.048148148148148155,0,0,0.048148148148148155,34.61851851851853,0)" xlink:href="#au"/><use transform="matrix(0.048148148148148155,0,0,0.048148148148148155,44.24814814814816,0)" xlink:href="#aA"/></g><path d="M115-194c53 0 69 39 70 98 0 66-23 100-70 100C84 3 66-7 56-30L54 0H23l1-261h32v101c10-23 28-34 59-34zm-8 174c40 0 45-34 45-75 0-40-5-75-45-74-42 0-51 32-51 76 0 43 10 73 51 73" id="aS"/><path d="M30-248c118-7 216 8 213 122C240-48 200 0 122 0H30v-248zM63-27c89 8 146-16 146-99s-60-101-146-95v194" id="aT"/><g id="x"><use transform="matrix(0.048148148148148155,0,0,0.048148148148148155,0,0)" xlink:href="#ax"/><use transform="matrix(0.048148148148148155,0,0,0.048148148148148155,9.629629629629632,0)" xlink:href="#aS"/><use transform="matrix(0.048148148148148155,0,0,0.048148148148148155,19.259259259259263,0)" xlink:href="#aF"/><use transform="matrix(0.048148148148148155,0,0,0.048148148148148155,30.81481481481482,0)" xlink:href="#aw"/><use transform="matrix(0.048148148148148155,0,0,0.048148148148148155,34.61851851851853,0)" xlink:href="#au"/><use transform="matrix(0.048148148148148155,0,0,0.048148148148148155,44.24814814814816,0)" xlink:href="#aE"/><use transform="matrix(0.048148148148148155,0,0,0.048148148148148155,52.91481481481483,0)" xlink:href="#as"/><use transform="matrix(0.048148148148148155,0,0,0.048148148148148155,62.544444444444466,0)" xlink:href="#aD"/><use transform="matrix(0.048148148148148155,0,0,0.048148148148148155,71.21111111111114,0)" xlink:href="#aT"/><use transform="matrix(0.048148148148148155,0,0,0.048148148148148155,83.68148148148151,0)" xlink:href="#av"/><use transform="matrix(0.048148148148148155,0,0,0.048148148148148155,87.48518518518522,0)" xlink:href="#aD"/><use transform="matrix(0.048148148148148155,0,0,0.048148148148148155,96.15185185185189,0)" xlink:href="#az"/><use transform="matrix(0.048148148148148155,0,0,0.048148148148148155,105.78148148148152,0)" xlink:href="#ay"/></g><path d="M137-103V0h-34v-103L8-248h37l75 118 75-118h37" id="aU"/><g id="y"><use transform="matrix(0.048148148148148155,0,0,0.048148148148148155,0,0)" xlink:href="#ar"/><use transform="matrix(0.048148148148148155,0,0,0.048148148148148155,10.544444444444446,0)" xlink:href="#aq"/><use transform="matrix(0.048148148148148155,0,0,0.048148148148148155,23.01481481481482,0)" xlink:href="#aI"/><use transform="matrix(0.048148148148148155,0,0,0.048148148148148155,34.57037037037038,0)" xlink:href="#aN"/><use transform="matrix(0.048148148148148155,0,0,0.048148148148148155,43.23703703703704,0)" xlink:href="#aO"/><use transform="matrix(0.048148148148148155,0,0,0.048148148148148155,54.7925925925926,0)" xlink:href="#ar"/><use transform="matrix(0.048148148148148155,0,0,0.048148148148148155,65.33703703703705,0)" xlink:href="#aQ"/><use transform="matrix(0.048148148148148155,0,0,0.048148148148148155,74.96666666666668,0)" xlink:href="#ar"/><use transform="matrix(0.048148148148148155,0,0,0.048148148148148155,85.51111111111113,0)" xlink:href="#aU"/><use transform="matrix(0.048148148148148155,0,0,0.048148148148148155,97.06666666666669,0)" xlink:href="#aF"/><use transform="matrix(0.048148148148148155,0,0,0.048148148148148155,108.62222222222223,0)" xlink:href="#aO"/></g><g id="z"><use transform="matrix(0.048148148148148155,0,0,0.048148148148148155,0,0)" xlink:href="#ax"/><use transform="matrix(0.048148148148148155,0,0,0.048148148148148155,9.629629629629632,0)" xlink:href="#aH"/><use transform="matrix(0.048148148148148155,0,0,0.048148148148148155,19.259259259259263,0)" xlink:href="#at"/><use transform="matrix(0.048148148148148155,0,0,0.048148148148148155,33.655555555555566,0)" xlink:href="#ar"/><use transform="matrix(0.048148148148148155,0,0,0.048148148148148155,44.20000000000001,0)" xlink:href="#ar"/><path d="M-.87 1.2H55.6v1.27H-.86z"/></g><path d="M194 0L95-120 63-95V0H30v-248h33v124l119-124h40L117-140 236 0h-42" id="aV"/><g id="A"><use transform="matrix(0.048148148148148155,0,0,0.048148148148148155,0,0)" xlink:href="#az"/><use transform="matrix(0.048148148148148155,0,0,0.048148148148148155,9.629629629629632,0)" xlink:href="#aA"/><use transform="matrix(0.048148148148148155,0,0,0.048148148148148155,15.359259259259261,0)" xlink:href="#av"/><use transform="matrix(0.048148148148148155,0,0,0.048148148148148155,19.162962962962965,0)" xlink:href="#aP"/><use transform="matrix(0.048148148148148155,0,0,0.048148148148148155,27.829629629629633,0)" xlink:href="#aF"/><use transform="matrix(0.048148148148148155,0,0,0.048148148148148155,39.38518518518519,0)" xlink:href="#au"/><use transform="matrix(0.048148148148148155,0,0,0.048148148148148155,49.01481481481483,0)" xlink:href="#aA"/><use transform="matrix(0.048148148148148155,0,0,0.048148148148148155,54.744444444444454,0)" xlink:href="#aV"/><use transform="matrix(0.048148148148148155,0,0,0.048148148148148155,66.30000000000001,0)" xlink:href="#at"/></g><path d="M137 0h-34L2-248h35l83 218 83-218h36" id="aW"/><path d="M140-251c81 0 123 46 123 126C263-46 219 4 140 4 59 4 17-45 17-125s42-126 123-126zm0 227c63 0 89-41 89-101s-29-99-89-99c-61 0-89 39-89 99S79-25 140-24" id="aX"/><path d="M232-93c-1 65-40 97-104 97C67 4 28-28 28-90v-158h33c8 89-33 224 67 224 102 0 64-133 71-224h33v155" id="aY"/><g id="B"><use transform="matrix(0.05,0,0,0.05,0,0)" xlink:href="#aW"/><use transform="matrix(0.05,0,0,0.05,12,0)" xlink:href="#aX"/><use transform="matrix(0.05,0,0,0.05,26,0)" xlink:href="#am"/><use transform="matrix(0.05,0,0,0.05,31,0)" xlink:href="#ar"/><use transform="matrix(0.05,0,0,0.05,41.95,0)" xlink:href="#aY"/><use transform="matrix(0.05,0,0,0.05,54.900000000000006,0)" xlink:href="#aq"/><use transform="matrix(0.05,0,0,0.05,67.85000000000001,0)" xlink:href="#aO"/></g><g id="C"><use transform="matrix(0.05,0,0,0.05,0,0)" xlink:href="#av"/><use transform="matrix(0.05,0,0,0.05,3.95,0)" xlink:href="#at"/><use transform="matrix(0.05,0,0,0.05,18.900000000000002,0)" xlink:href="#at"/><use transform="matrix(0.05,0,0,0.05,33.85,0)" xlink:href="#au"/><use transform="matrix(0.05,0,0,0.05,43.85,0)" xlink:href="#aC"/><use transform="matrix(0.05,0,0,0.05,48.85,0)" xlink:href="#aA"/><use transform="matrix(0.05,0,0,0.05,54.800000000000004,0)" xlink:href="#av"/><use transform="matrix(0.05,0,0,0.05,58.75,0)" xlink:href="#aE"/><use transform="matrix(0.05,0,0,0.05,67.75,0)" xlink:href="#aH"/><use transform="matrix(0.05,0,0,0.05,77.75,0)" xlink:href="#aw"/><use transform="matrix(0.05,0,0,0.05,81.7,0)" xlink:href="#au"/><use transform="matrix(0.05,0,0,0.05,91.7,0)" xlink:href="#aC"/><use transform="matrix(0.05,0,0,0.05,96.7,0)" xlink:href="#av"/><use transform="matrix(0.05,0,0,0.05,100.65,0)" xlink:href="#ay"/><use transform="matrix(0.05,0,0,0.05,110.65,0)" xlink:href="#ax"/><path d="M-.9 1.25h122.45v1.32H-.9z"/></g><path d="M145-31C134-9 116 4 85 4 32 4 16-35 15-94c0-59 17-99 70-100 32-1 48 14 60 33 0-11-1-24 2-32h30l-1 268h-32zM93-21c41 0 51-33 51-76s-8-73-50-73c-40 0-46 35-46 75s5 74 45 74" id="aZ"/><g id="D"><use transform="matrix(0.05,0,0,0.05,0,0)" xlink:href="#at"/><use transform="matrix(0.05,0,0,0.05,14.950000000000001,0)" xlink:href="#au"/><use transform="matrix(0.05,0,0,0.05,24.950000000000003,0)" xlink:href="#aA"/><use transform="matrix(0.05,0,0,0.05,30.900000000000002,0)" xlink:href="#aZ"/><use transform="matrix(0.05,0,0,0.05,40.900000000000006,0)" xlink:href="#aH"/><use transform="matrix(0.05,0,0,0.05,50.900000000000006,0)" xlink:href="#as"/></g><g id="E"><use transform="matrix(0.05,0,0,0.05,0,0)" xlink:href="#at"/><use transform="matrix(0.05,0,0,0.05,14.950000000000001,0)" xlink:href="#ay"/><use transform="matrix(0.05,0,0,0.05,24.950000000000003,0)" xlink:href="#aB"/><use transform="matrix(0.05,0,0,0.05,34.95,0)" xlink:href="#as"/><use transform="matrix(0.05,0,0,0.05,44.95,0)" xlink:href="#aw"/><use transform="matrix(0.05,0,0,0.05,48.900000000000006,0)" xlink:href="#as"/></g><g id="F"><use transform="matrix(0.05,0,0,0.05,0,0)" xlink:href="#au"/><use transform="matrix(0.05,0,0,0.05,10,0)" xlink:href="#ax"/><use transform="matrix(0.05,0,0,0.05,20,0)" xlink:href="#ax"/><use transform="matrix(0.05,0,0,0.05,30,0)" xlink:href="#as"/><use transform="matrix(0.05,0,0,0.05,40,0)" xlink:href="#as"/></g><g id="G"><use transform="matrix(0.05,0,0,0.05,0,0)" xlink:href="#aE"/><use transform="matrix(0.05,0,0,0.05,9,0)" xlink:href="#ay"/><use transform="matrix(0.05,0,0,0.05,19,0)" xlink:href="#aH"/><use transform="matrix(0.05,0,0,0.05,29,0)" xlink:href="#aw"/><use transform="matrix(0.05,0,0,0.05,32.95,0)" xlink:href="#as"/><use transform="matrix(0.05,0,0,0.05,42.95,0)" xlink:href="#aH"/><use transform="matrix(0.05,0,0,0.05,52.95,0)" xlink:href="#aA"/></g><g id="H"><use transform="matrix(0.05,0,0,0.05,0,0)" xlink:href="#ax"/><use transform="matrix(0.05,0,0,0.05,10,0)" xlink:href="#aS"/><use transform="matrix(0.05,0,0,0.05,20,0)" xlink:href="#aF"/><use transform="matrix(0.05,0,0,0.05,32,0)" xlink:href="#aw"/><use transform="matrix(0.05,0,0,0.05,35.95,0)" xlink:href="#au"/><use transform="matrix(0.05,0,0,0.05,45.95,0)" xlink:href="#aE"/><use transform="matrix(0.05,0,0,0.05,54.95,0)" xlink:href="#as"/><use transform="matrix(0.05,0,0,0.05,64.95,0)" xlink:href="#aD"/></g><path d="M30 0v-248h33v221h125V0H30" id="ba"/><g id="I"><use transform="matrix(0.048148148148148155,0,0,0.048148148148148155,0,0)" xlink:href="#aW"/><use transform="matrix(0.048148148148148155,0,0,0.048148148148148155,11.555555555555557,0)" xlink:href="#am"/><use transform="matrix(0.048148148148148155,0,0,0.048148148148148155,16.370370370370374,0)" xlink:href="#ba"/><use transform="matrix(0.048148148148148155,0,0,0.048148148148148155,26.00000000000001,0)" xlink:href="#ba"/><use transform="matrix(0.048148148148148155,0,0,0.048148148148148155,35.62962962962964,0)" xlink:href="#aO"/></g><path d="M195 0l-74-108L45 0H8l94-129-87-119h37l69 98 67-98h37l-84 118L233 0h-38" id="bb"/><g id="J"><use transform="matrix(0.048148148148148155,0,0,0.048148148148148155,0,0)" xlink:href="#aE"/><use transform="matrix(0.048148148148148155,0,0,0.048148148148148155,8.666666666666668,0)" xlink:href="#ay"/><use transform="matrix(0.048148148148148155,0,0,0.048148148148148155,18.296296296296298,0)" xlink:href="#ay"/><use transform="matrix(0.048148148148148155,0,0,0.048148148148148155,27.92592592592593,0)" xlink:href="#aA"/><use transform="matrix(0.048148148148148155,0,0,0.048148148148148155,33.65555555555556,0)" xlink:href="#aB"/><use transform="matrix(0.048148148148148155,0,0,0.048148148148148155,43.28518518518519,0)" xlink:href="#bb"/><path d="M-.87 1.2H55.7v1.27H-.87z"/></g><g id="K"><use transform="matrix(0.048148148148148155,0,0,0.048148148148148155,0,0)" xlink:href="#aE"/><use transform="matrix(0.048148148148148155,0,0,0.048148148148148155,8.666666666666668,0)" xlink:href="#ay"/><use transform="matrix(0.048148148148148155,0,0,0.048148148148148155,18.296296296296298,0)" xlink:href="#ay"/><use transform="matrix(0.048148148148148155,0,0,0.048148148148148155,27.92592592592593,0)" xlink:href="#aA"/><use transform="matrix(0.048148148148148155,0,0,0.048148148148148155,33.65555555555556,0)" xlink:href="#aB"/><use transform="matrix(0.048148148148148155,0,0,0.048148148148148155,43.28518518518519,0)" xlink:href="#aU"/><path d="M-.87 1.2H55.7v1.27H-.87z"/></g><g id="L"><use transform="matrix(0.048148148148148155,0,0,0.048148148148148155,0,0)" xlink:href="#ax"/><use transform="matrix(0.048148148148148155,0,0,0.048148148148148155,9.629629629629632,0)" xlink:href="#ay"/><use transform="matrix(0.048148148148148155,0,0,0.048148148148148155,19.259259259259263,0)" xlink:href="#at"/></g><g id="M"><use transform="matrix(0.048148148148148155,0,0,0.048148148148148155,0,0)" xlink:href="#az"/><use transform="matrix(0.048148148148148155,0,0,0.048148148148148155,9.629629629629632,0)" xlink:href="#au"/><use transform="matrix(0.048148148148148155,0,0,0.048148148148148155,19.259259259259263,0)" xlink:href="#aG"/><use transform="matrix(0.048148148148148155,0,0,0.048148148148148155,27.92592592592593,0)" xlink:href="#aD"/></g><g id="N"><use transform="matrix(0.05,0,0,0.05,0,0)" xlink:href="#aA"/><use transform="matrix(0.05,0,0,0.05,5.95,0)" xlink:href="#as"/><use transform="matrix(0.05,0,0,0.05,15.949999999999998,0)" xlink:href="#aM"/><use transform="matrix(0.05,0,0,0.05,25.950000000000003,0)" xlink:href="#av"/><use transform="matrix(0.05,0,0,0.05,29.899999999999995,0)" xlink:href="#ay"/><use transform="matrix(0.05,0,0,0.05,39.9,0)" xlink:href="#ax"/></g><g id="O"><use transform="matrix(0.05,0,0,0.05,0,0)" xlink:href="#aF"/><use transform="matrix(0.05,0,0,0.05,12,0)" xlink:href="#ay"/><use transform="matrix(0.05,0,0,0.05,22,0)" xlink:href="#aD"/><use transform="matrix(0.05,0,0,0.05,31,0)" xlink:href="#aD"/><use transform="matrix(0.05,0,0,0.05,40,0)" xlink:href="#as"/><use transform="matrix(0.05,0,0,0.05,50,0)" xlink:href="#aB"/><use transform="matrix(0.05,0,0,0.05,60,0)" xlink:href="#as"/></g><path fill="#333" d="M101-251c68 0 85 55 85 127S166 4 100 4C33 4 14-52 14-124c0-73 17-127 87-127zm-1 229c47 0 54-49 54-102s-4-102-53-102c-51 0-55 48-55 102 0 53 5 102 54 102" id="bc"/><path fill="#333" d="M33 0v-38h34V0H33" id="bd"/><path fill="#333" d="M190 0L58-211 59 0H30v-248h39L202-35l-2-213h31V0h-41" id="be"/><g id="P"><use transform="matrix(0.05,0,0,0.05,0,0)" xlink:href="#bc"/><use transform="matrix(0.05,0,0,0.05,10,0)" xlink:href="#bd"/><use transform="matrix(0.05,0,0,0.05,15,0)" xlink:href="#be"/></g><path fill="#333" d="M27 0v-27h64v-190l-56 39v-29l58-41h29v221h61V0H27" id="bf"/><g id="Q"><use transform="matrix(0.05,0,0,0.05,0,0)" xlink:href="#bf"/><use transform="matrix(0.05,0,0,0.05,10,0)" xlink:href="#bd"/><use transform="matrix(0.05,0,0,0.05,15,0)" xlink:href="#bf"/></g><g id="R"><use transform="matrix(0.05,0,0,0.05,0,0)" xlink:href="#aE"/><use transform="matrix(0.05,0,0,0.05,9,0)" xlink:href="#aA"/><use transform="matrix(0.05,0,0,0.05,14.949999999999998,0)" xlink:href="#as"/><use transform="matrix(0.05,0,0,0.05,24.95,0)" xlink:href="#as"/><use transform="matrix(0.05,0,0,0.05,34.95,0)" xlink:href="#aA"/></g><path d="M18-150v-26h174v26H18zm0 90v-26h174v26H18" id="bg"/><path d="M27 0v-27h64v-190l-56 39v-29l58-41h29v221h61V0H27" id="bh"/><g id="S"><use transform="matrix(0.05,0,0,0.05,0,0)" xlink:href="#as"/><use transform="matrix(0.05,0,0,0.05,10,0)" xlink:href="#aD"/><use transform="matrix(0.05,0,0,0.05,19,0)" xlink:href="#aC"/><use transform="matrix(0.05,0,0,0.05,24,0)" xlink:href="#aI"/><use transform="matrix(0.05,0,0,0.05,36,0)" xlink:href="#aB"/><use transform="matrix(0.05,0,0,0.05,46,0)" xlink:href="#at"/><use transform="matrix(0.05,0,0,0.05,60.95,0)" xlink:href="#av"/><use transform="matrix(0.05,0,0,0.05,64.9,0)" xlink:href="#ax"/><use transform="matrix(0.05,0,0,0.05,74.9,0)" xlink:href="#bg"/><use transform="matrix(0.05,0,0,0.05,85.4,0)" xlink:href="#bh"/></g><path d="M101-234c-31-9-42 10-38 44h38v23H63V0H32v-167H5v-23h27c-7-52 17-82 69-68v24" id="bi"/><g id="T"><use transform="matrix(0.05,0,0,0.05,0,0)" xlink:href="#aA"/><use transform="matrix(0.05,0,0,0.05,5.95,0)" xlink:href="#as"/><use transform="matrix(0.05,0,0,0.05,15.949999999999998,0)" xlink:href="#aw"/><use transform="matrix(0.05,0,0,0.05,19.9,0)" xlink:href="#au"/><use transform="matrix(0.05,0,0,0.05,29.899999999999995,0)" xlink:href="#aC"/><use transform="matrix(0.05,0,0,0.05,34.9,0)" xlink:href="#av"/><use transform="matrix(0.05,0,0,0.05,38.85,0)" xlink:href="#bi"/></g><g id="U"><use transform="matrix(0.05,0,0,0.05,0,0)" xlink:href="#bc"/><use transform="matrix(0.05,0,0,0.05,10,0)" xlink:href="#bd"/><use transform="matrix(0.05,0,0,0.05,15,0)" xlink:href="#bf"/></g><g id="V"><use transform="matrix(0.05,0,0,0.05,0,0)" xlink:href="#au"/><use transform="matrix(0.05,0,0,0.05,10,0)" xlink:href="#aA"/><use transform="matrix(0.05,0,0,0.05,15.949999999999998,0)" xlink:href="#aA"/><use transform="matrix(0.05,0,0,0.05,21.9,0)" xlink:href="#av"/><use transform="matrix(0.05,0,0,0.05,25.849999999999994,0)" xlink:href="#aR"/><use transform="matrix(0.05,0,0,0.05,34.849999999999994,0)" xlink:href="#as"/></g><g id="W"><use transform="matrix(0.05,0,0,0.05,0,0)" xlink:href="#aB"/><use transform="matrix(0.05,0,0,0.05,10,0)" xlink:href="#as"/><use transform="matrix(0.05,0,0,0.05,20,0)" xlink:href="#az"/><use transform="matrix(0.05,0,0,0.05,30,0)" xlink:href="#au"/><use transform="matrix(0.05,0,0,0.05,40,0)" xlink:href="#aA"/><use transform="matrix(0.05,0,0,0.05,45.95,0)" xlink:href="#aC"/></g><g id="X"><use transform="matrix(0.05,0,0,0.05,0,0)" xlink:href="#au"/><use transform="matrix(0.05,0,0,0.05,10,0)" xlink:href="#aR"/><use transform="matrix(0.05,0,0,0.05,19,0)" xlink:href="#as"/><use transform="matrix(0.05,0,0,0.05,29,0)" xlink:href="#aE"/></g><g id="Y"><use transform="matrix(0.05,0,0,0.05,0,0)" xlink:href="#ax"/><use transform="matrix(0.05,0,0,0.05,10,0)" xlink:href="#aS"/><use transform="matrix(0.05,0,0,0.05,20,0)" xlink:href="#aF"/><use transform="matrix(0.05,0,0,0.05,32,0)" xlink:href="#aw"/><use transform="matrix(0.05,0,0,0.05,35.95,0)" xlink:href="#au"/><use transform="matrix(0.05,0,0,0.05,45.95,0)" xlink:href="#aE"/><use transform="matrix(0.05,0,0,0.05,54.95,0)" xlink:href="#as"/><use transform="matrix(0.05,0,0,0.05,64.95,0)" xlink:href="#aD"/><use transform="matrix(0.05,0,0,0.05,73.95,0)" xlink:href="#aT"/><use transform="matrix(0.05,0,0,0.05,86.9,0)" xlink:href="#av"/><use transform="matrix(0.05,0,0,0.05,90.85000000000001,0)" xlink:href="#aD"/><use transform="matrix(0.05,0,0,0.05,99.85000000000001,0)" xlink:href="#az"/><use transform="matrix(0.05,0,0,0.05,109.85000000000001,0)" xlink:href="#ay"/></g><path d="M18-100v-36l175-74v27L42-118l151 64v27" id="bj"/><use transform="matrix(0.05,0,0,0.05,0,0)" xlink:href="#bj" id="Z"/><g id="aa"><use transform="matrix(0.05,0,0,0.05,0,0)" xlink:href="#aF"/><use transform="matrix(0.05,0,0,0.05,12,0)" xlink:href="#aA"/><use transform="matrix(0.05,0,0,0.05,17.95,0)" xlink:href="#ay"/><use transform="matrix(0.05,0,0,0.05,27.950000000000003,0)" xlink:href="#az"/><use transform="matrix(0.05,0,0,0.05,37.95,0)" xlink:href="#ay"/><use transform="matrix(0.05,0,0,0.05,47.95,0)" xlink:href="#aD"/><use transform="matrix(0.05,0,0,0.05,56.95,0)" xlink:href="#as"/></g><g id="ab"><use transform="matrix(0.05,0,0,0.05,0,0)" xlink:href="#aI"/><use transform="matrix(0.05,0,0,0.05,10.65,0)" xlink:href="#aW"/><use transform="matrix(0.05,0,0,0.05,22.65,0)" xlink:href="#am"/><use transform="matrix(0.05,0,0,0.05,27.649999999999995,0)" xlink:href="#ao"/></g><g id="ac"><use transform="matrix(0.05,0,0,0.05,0,0)" xlink:href="#ax"/><use transform="matrix(0.05,0,0,0.05,10,0)" xlink:href="#aS"/><use transform="matrix(0.05,0,0,0.05,20,0)" xlink:href="#aO"/><use transform="matrix(0.05,0,0,0.05,32,0)" xlink:href="#aC"/><use transform="matrix(0.05,0,0,0.05,37,0)" xlink:href="#ay"/><use transform="matrix(0.05,0,0,0.05,47,0)" xlink:href="#av"/><use transform="matrix(0.05,0,0,0.05,50.95,0)" xlink:href="#aw"/><use transform="matrix(0.05,0,0,0.05,54.900000000000006,0)" xlink:href="#as"/><use transform="matrix(0.05,0,0,0.05,64.9,0)" xlink:href="#aD"/></g><g id="ad"><use transform="matrix(0.05,0,0,0.05,0,0)" xlink:href="#aE"/><use transform="matrix(0.05,0,0,0.05,9,0)" xlink:href="#ay"/><use transform="matrix(0.05,0,0,0.05,19,0)" xlink:href="#at"/><use transform="matrix(0.05,0,0,0.05,33.95,0)" xlink:href="#at"/><use transform="matrix(0.05,0,0,0.05,48.900000000000006,0)" xlink:href="#as"/><use transform="matrix(0.05,0,0,0.05,58.900000000000006,0)" xlink:href="#ax"/><use transform="matrix(0.05,0,0,0.05,68.9,0)" xlink:href="#aC"/><use transform="matrix(0.05,0,0,0.05,73.9,0)" xlink:href="#au"/><use transform="matrix(0.05,0,0,0.05,83.9,0)" xlink:href="#av"/><use transform="matrix(0.05,0,0,0.05,87.85000000000001,0)" xlink:href="#aA"/><use transform="matrix(0.05,0,0,0.05,93.80000000000001,0)" xlink:href="#as"/></g><path d="M24 0v-248h195v40H76v63h132v40H76v65h150V0H24" id="bk"/><path d="M144 0l-44-69L55 0H2l70-98-66-92h53l41 62 40-62h54l-67 91 71 99h-54" id="bl"/><path d="M115-3C79 11 28 4 28-45v-112H4v-33h27l15-45h31v45h36v33H77v99c-1 23 16 31 38 25v30" id="bm"/><path d="M185-48c-13 30-37 53-82 52C43 2 14-33 14-96s30-98 90-98c62 0 83 45 84 108H66c0 31 8 55 39 56 18 0 30-7 34-22zm-45-69c5-46-57-63-70-21-2 6-4 13-4 21h74" id="bn"/><path d="M135-194c87-1 58 113 63 194h-50c-7-57 23-157-34-157-59 0-34 97-39 157H25l-1-190h47c2 12-1 28 3 38 12-26 28-41 61-42" id="bo"/><path d="M137-138c1-29-70-34-71-4 15 46 118 7 119 86 1 83-164 76-172 9l43-7c4 19 20 25 44 25 33 8 57-30 24-41C81-84 22-81 20-136c-2-80 154-74 161-7" id="bp"/><path d="M25-224v-37h50v37H25zM25 0v-190h50V0H25" id="bq"/><path d="M110-194c64 0 96 36 96 99 0 64-35 99-97 99-61 0-95-36-95-99 0-62 34-99 96-99zm-1 164c35 0 45-28 45-65 0-40-10-65-43-65-34 0-45 26-45 65 0 36 10 65 43 65" id="br"/><g id="ae"><use transform="matrix(0.05,0,0,0.05,0,0)" xlink:href="#bk"/><use transform="matrix(0.05,0,0,0.05,12,0)" xlink:href="#bl"/><use transform="matrix(0.05,0,0,0.05,22,0)" xlink:href="#bm"/><use transform="matrix(0.05,0,0,0.05,27.950000000000003,0)" xlink:href="#bn"/><use transform="matrix(0.05,0,0,0.05,37.95,0)" xlink:href="#bo"/><use transform="matrix(0.05,0,0,0.05,48.900000000000006,0)" xlink:href="#bp"/><use transform="matrix(0.05,0,0,0.05,58.900000000000006,0)" xlink:href="#bq"/><use transform="matrix(0.05,0,0,0.05,63.900000000000006,0)" xlink:href="#br"/><use transform="matrix(0.05,0,0,0.05,74.85000000000001,0)" xlink:href="#bo"/></g><path d="M24-248c93 1 206-16 204 79-1 75-69 88-152 82V0H24v-248zm52 121c47 0 100 7 100-41 0-47-54-39-100-39v80" id="bs"/><g id="af"><use transform="matrix(0.05,0,0,0.05,0,0)" xlink:href="#bs"/><use transform="matrix(0.05,0,0,0.05,12,0)" xlink:href="#br"/><use transform="matrix(0.05,0,0,0.05,22.950000000000003,0)" xlink:href="#bq"/><use transform="matrix(0.05,0,0,0.05,27.950000000000003,0)" xlink:href="#bo"/><use transform="matrix(0.05,0,0,0.05,38.900000000000006,0)" xlink:href="#bm"/><use transform="matrix(0.05,0,0,0.05,44.85000000000001,0)" xlink:href="#bp"/></g><g id="ag"><use transform="matrix(0.05,0,0,0.05,0,0)" xlink:href="#aO"/><use transform="matrix(0.05,0,0,0.05,12,0)" xlink:href="#ar"/><use transform="matrix(0.05,0,0,0.05,21.6,0)" xlink:href="#aI"/><use transform="matrix(0.05,0,0,0.05,33.6,0)" xlink:href="#aF"/><use transform="matrix(0.05,0,0,0.05,45.6,0)" xlink:href="#aO"/></g><g id="ai"><use transform="matrix(0.05,0,0,0.05,0,0)" xlink:href="#ay"/><use transform="matrix(0.05,0,0,0.05,10,0)" xlink:href="#aA"/><use transform="matrix(0.05,0,0,0.05,15.949999999999998,0)" xlink:href="#aB"/><use transform="matrix(0.05,0,0,0.05,25.950000000000003,0)" xlink:href="#aA"/><use transform="matrix(0.05,0,0,0.05,31.899999999999995,0)" xlink:href="#as"/></g><g id="aj"><use transform="matrix(0.05,0,0,0.05,0,0)" xlink:href="#az"/><use transform="matrix(0.05,0,0,0.05,10,0)" xlink:href="#au"/><use transform="matrix(0.05,0,0,0.05,20,0)" xlink:href="#aA"/><use transform="matrix(0.05,0,0,0.05,25.950000000000003,0)" xlink:href="#aC"/><use transform="matrix(0.05,0,0,0.05,30.950000000000003,0)" xlink:href="#av"/><use transform="matrix(0.05,0,0,0.05,34.9,0)" xlink:href="#aE"/><use transform="matrix(0.05,0,0,0.05,43.9,0)" xlink:href="#av"/><use transform="matrix(0.05,0,0,0.05,47.85,0)" xlink:href="#az"/><use transform="matrix(0.05,0,0,0.05,57.85,0)" xlink:href="#as"/></g><g id="ak"><use transform="matrix(0.05,0,0,0.05,0,0)" xlink:href="#av"/><use transform="matrix(0.05,0,0,0.05,3.95,0)" xlink:href="#ax"/><use transform="matrix(0.05,0,0,0.05,13.949999999999998,0)" xlink:href="#aB"/><use transform="matrix(0.05,0,0,0.05,23.95,0)" xlink:href="#av"/><use transform="matrix(0.05,0,0,0.05,27.899999999999995,0)" xlink:href="#aE"/><use transform="matrix(0.05,0,0,0.05,36.9,0)" xlink:href="#as"/><use transform="matrix(0.05,0,0,0.05,46.9,0)" xlink:href="#aW"/><use transform="matrix(0.05,0,0,0.05,58.54999999999999,0)" xlink:href="#av"/><use transform="matrix(0.05,0,0,0.05,62.5,0)" xlink:href="#aw"/><use transform="matrix(0.05,0,0,0.05,66.45,0)" xlink:href="#aw"/><use transform="matrix(0.05,0,0,0.05,70.4,0)" xlink:href="#as"/><use transform="matrix(0.05,0,0,0.05,80.4,0)" xlink:href="#aT"/><use transform="matrix(0.05,0,0,0.05,93.35000000000001,0)" xlink:href="#as"/><use transform="matrix(0.05,0,0,0.05,103.35000000000001,0)" xlink:href="#aD"/><use transform="matrix(0.05,0,0,0.05,112.35000000000001,0)" xlink:href="#aE"/><use transform="matrix(0.05,0,0,0.05,121.35000000000001,0)" xlink:href="#as"/><use transform="matrix(0.05,0,0,0.05,131.35000000000002,0)" xlink:href="#ax"/><use transform="matrix(0.05,0,0,0.05,141.35000000000002,0)" xlink:href="#aC"/><use transform="matrix(0.05,0,0,0.05,146.35000000000002,0)" xlink:href="#as"/></g><path d="M240 0l2-218c-23 76-54 145-80 218h-23L58-218 59 0H30v-248h44l77 211c21-75 51-140 76-211h43V0h-30" id="bt"/><g id="al"><use transform="matrix(0.05,0,0,0.05,0,0)" xlink:href="#av"/><use transform="matrix(0.05,0,0,0.05,3.95,0)" xlink:href="#ax"/><use transform="matrix(0.05,0,0,0.05,13.949999999999998,0)" xlink:href="#aB"/><use transform="matrix(0.05,0,0,0.05,23.95,0)" xlink:href="#av"/><use transform="matrix(0.05,0,0,0.05,27.899999999999995,0)" xlink:href="#aE"/><use transform="matrix(0.05,0,0,0.05,36.9,0)" xlink:href="#as"/><use transform="matrix(0.05,0,0,0.05,46.9,0)" xlink:href="#aW"/><use transform="matrix(0.05,0,0,0.05,58.54999999999999,0)" xlink:href="#av"/><use transform="matrix(0.05,0,0,0.05,62.5,0)" xlink:href="#aw"/><use transform="matrix(0.05,0,0,0.05,66.45,0)" xlink:href="#aw"/><use transform="matrix(0.05,0,0,0.05,70.4,0)" xlink:href="#as"/><use transform="matrix(0.05,0,0,0.05,80.4,0)" xlink:href="#bt"/><use transform="matrix(0.05,0,0,0.05,95.35000000000001,0)" xlink:href="#ay"/><use transform="matrix(0.05,0,0,0.05,105.35000000000001,0)" xlink:href="#ax"/><use transform="matrix(0.05,0,0,0.05,115.35000000000001,0)" xlink:href="#aC"/><use transform="matrix(0.05,0,0,0.05,120.35000000000001,0)" xlink:href="#as"/></g></defs></g></svg>